<svg width="16" height="16" viewBox="0 0 16 16" xmlns="http://www.w3.org/2000/svg">
<path fill-rule="evenodd" clip-rule="evenodd" d="M7.99999 0.719971C7.26199 1.44797 6.55499 2.27697 5.80899 3.00097H2.99999V5.80997C2.27499 6.55597 1.44699 7.26297 0.718994 7.99997C1.44699 8.73997 2.27499 9.47497 2.99999 10.224V13H5.80699C6.55399 13.725 7.26099 14.553 7.99999 15.281C8.73899 14.552 9.47499 13.725 10.225 13.001H13V10.223C13.725 9.47297 14.553 8.73897 15.281 7.99997C14.553 7.26197 13.725 6.55597 13 5.80897V2.99997H10.223C9.47299 2.27597 8.73799 1.44997 7.99999 0.719971Z M11.65 5.05L12.55 5.95L7.05 11.45L3.75 8.15L4.65 7.25L7.05 9.65Z" fill="#2EA043"/>
</svg>
